<svg xmlns="http://www.w3.org/2000/svg" viewBox="0 0 480.22 162.46"><defs><style>.cls-1{fill:#06121b;}.cls-2{fill:#6cb12e;}.cls-3{fill:none;}.cls-4{fill:#fff;}</style></defs><title>Asset 1@10x</title><g id="Layer_2" data-name="Layer 2"><g id="Слой_1" data-name="Слой 1"><line class="cls-1" x1="173.86" y1="89.95" x2="174" y2="155.96"/><path class="cls-1" d="M174,162.46a6.5,6.5,0,0,1-6.5-6.48l-.14-66a6.49,6.49,0,0,1,6.48-6.51h0a6.5,6.5,0,0,1,6.5,6.48l.14,66a6.48,6.48,0,0,1-6.48,6.51Z"/><path class="cls-2" d="M123.56,162.46a20.17,20.17,0,0,1-19.68-14.09c-.68-2.42-7.87-20.21-12.63-32-5.13-12.7-7.11-17.61-7.51-18.92a6.5,6.5,0,1,1,12.42-3.83c.4,1.2,4,10.06,7.14,17.87q4.5,11.13,9,22.26,1.26,3.19,2.49,6.4c.45,1.18.9,2.33,1.43,3.49a19.56,19.56,0,0,0,1,2,8.46,8.46,0,0,0,2.72,2.83,6.55,6.55,0,0,0,4,.92c5.14-.16,6.8-6,6.82-6,.53-2.22,3.51-20.24,6.66-39.32,8.19-49.56,15.17-91.25,17.62-99.47a6.5,6.5,0,1,1,12.46,3.71c-2.42,8.11-11.34,62.13-17.25,97.88-5,30.38-6.43,38.73-7,40.69-1.55,5.59-7.28,15.16-18.94,15.52Z"/><circle class="cls-1" cx="297.47" cy="150.01" r="11.94"/><path class="cls-1" d="M327,162.46a6.3,6.3,0,0,1-6.1-5.11c-.29-1.27-3.11-10.74-5.6-19.11q-3.06-10.29-6.08-20.6c-1.5-5.12-2.86-10.29-4.49-15.35-.82-2.53-3.75-5.48-6.45-5.39h-.84c-2.71,0-5.21,2.75-6.25,5.14a44,44,0,0,0-1.83,6c-.64,2.34-1.31,4.67-2,7-2.24,7.74-4.54,15.46-6.83,23.18-2.48,8.37-5.3,17.86-5.6,19.17a6.23,6.23,0,0,1-7.44,4.95,6.52,6.52,0,0,1-4.77-7.75c.29-1.37,1.84-6.63,5.86-20.2,3.74-12.59,9.38-31.61,9.85-34.16.56-3.35,7-16.3,19-16.3h.95c12,0,18.43,13,19,16.32.47,2.54,6.13,21.58,9.87,34.18,4,13.55,5.58,18.8,5.87,20.17a6.51,6.51,0,0,1-4.77,7.74A5.65,5.65,0,0,1,327,162.46Z"/><path class="cls-3" d="M401.94,90.19c0,27.27.46,51.19.2,53,0,0-1.19,10.92-8.34,12.55-6,1.37-10.83-8.76-11.12-9.9-.85-3.27-13-38-13-38l-4.34-10.33s-3.87-8.72-11.07-7.51c-6.07,1-6.78,7.31-8.09,12.51l.05,53.41"/><path class="cls-1" d="M346.22,162.46a6.49,6.49,0,0,1-6.5-6.49v-5.39l0-12.94V108.43a47.84,47.84,0,0,1,.87-10.81c1.49-6.53,5.59-12.81,12.63-14C362.79,82,369.07,90,371.27,94.91l.05.12,4.48,10.7q2.16,6.17,4.31,12.34c2,5.63,3.92,11.27,5.84,16.92.69,2,1.38,4.07,2.05,6.11.38,1.14.65,2.28,1.05,3.43a11,11,0,0,0,.61,1.46c.69,1.26,1.64,2.22,3.23,1.91,3.58-.7,2.83-6.44,2.83-9,0-4.3,0-8.61-.07-12.91,0-1,0-2,0-2.94-.08-9.2-.17-20.66-.19-32.83a6.5,6.5,0,0,1,13,0c0,12.13.11,23.56.19,32.75.12,15.64.14,19.44,0,21s-2,15.59-13.35,18.17a11.84,11.84,0,0,1-2.71.32c-9.91,0-15.59-12.77-16.15-14.92s-8.14-24-12.79-37.24c-.61-1.74-1.44-3.43-2.16-5.13-.49-1.18-1-2.36-1.48-3.53a18.19,18.19,0,0,0-1.87-4,3.4,3.4,0,0,0-1.5-1.21,2.76,2.76,0,0,0-3,1.35,5.29,5.29,0,0,0-.69,2.06,19.5,19.5,0,0,0-.18,3.65c.06,2,0,4,0,6v28.53l0,12.81V156A6.49,6.49,0,0,1,346.22,162.46Z"/><path class="cls-1" d="M249.21,162.46a6.48,6.48,0,0,1-4.08-1.44c-12.67-10.23-22.24-18.68-33.34-28.46l-9.56-8.44,6.12-5.53,0,0c7.9-6.72,15-13.37,21.9-19.8,4.68-4.38,9.52-8.9,14.61-13.45a6.5,6.5,0,0,1,8.67,9.69c-5,4.45-9.77,8.93-14.41,13.26-5.5,5.14-11.15,10.41-17.27,15.8,10.36,9.14,19.54,17.2,31.43,26.8a6.5,6.5,0,0,1-4.09,11.55Z"/><line class="cls-1" x1="203.43" y1="89.95" x2="203.58" y2="155.96"/><path class="cls-1" d="M203.58,162.46a6.49,6.49,0,0,1-6.5-6.48l-.15-66a6.5,6.5,0,0,1,13,0l.15,66a6.5,6.5,0,0,1-6.49,6.51Z"/><line class="cls-4" x1="473.72" y1="90.52" x2="422.77" y2="90.52"/><path class="cls-1" d="M473.72,97h-51a6.5,6.5,0,0,1,0-13h51a6.5,6.5,0,0,1,0,13Z"/><line class="cls-4" x1="448.42" y1="91.23" x2="448.56" y2="156.06"/><path class="cls-1" d="M448.56,162.46a6.46,6.46,0,0,1-6.5-6.39l-.14-64.83a6.47,6.47,0,0,1,6.49-6.42h0a6.45,6.45,0,0,1,6.5,6.4l.14,64.82a6.44,6.44,0,0,1-6.48,6.42Z"/><path d="M8.61,72.15a10.66,10.66,0,0,0-2-.71,7.3,7.3,0,0,0-1.84-.23,4.49,4.49,0,0,0-2.46.61,1.79,1.79,0,0,0-1,1.54A1.48,1.48,0,0,0,2,74.59a9.21,9.21,0,0,0,2.66,1.08l.35.1A9.86,9.86,0,0,1,8.08,77a2.81,2.81,0,0,1,.81.92A2.22,2.22,0,0,1,9.17,79,2.61,2.61,0,0,1,7.79,81.3a6.34,6.34,0,0,1-3.51.88,9.08,9.08,0,0,1-2.14-.26A11,11,0,0,1,0,81.16V80A11.31,11.31,0,0,0,2.22,81a7.06,7.06,0,0,0,2,.31,4.68,4.68,0,0,0,2.57-.61A1.9,1.9,0,0,0,7.77,79a1.53,1.53,0,0,0-.65-1.28,10.27,10.27,0,0,0-2.94-1.16A10.39,10.39,0,0,1,.92,75.18a2.16,2.16,0,0,1-.87-1.77,2.53,2.53,0,0,1,1.33-2.19,6.36,6.36,0,0,1,3.48-.85,9.85,9.85,0,0,1,1.89.18,11,11,0,0,1,1.86.57Z"/><path d="M16.31,82V71.35H10.14v-.83H23.9v.83H17.73V82Z"/><path d="M26,82V70.52h9v.74H27.34v4.56h7.4v.74h-7.4v4.68h7.84V82Z"/><path d="M38,82V70.52h9v.74H39.3v4.56h7.41v.74H39.3v4.68h7.85V82Z"/><path d="M50,82V70.52H51.4V81.24h7.8V82Z"/><path d="M73.28,70.52a17.39,17.39,0,0,1,3.22.25,8.68,8.68,0,0,1,2.4.79,6.7,6.7,0,0,1,2.44,2,4.49,4.49,0,0,1,0,5.31,6.51,6.51,0,0,1-2.44,2,8.65,8.65,0,0,1-2.41.81,17.57,17.57,0,0,1-3.21.26H67.53V70.52Zm-.34.83h-4v9.86h4A17.69,17.69,0,0,0,75.76,81a7.73,7.73,0,0,0,2-.59A5.41,5.41,0,0,0,80,78.69a4.07,4.07,0,0,0,0-4.82,5.35,5.35,0,0,0-2.17-1.75,7.37,7.37,0,0,0-2-.59A19.08,19.08,0,0,0,72.94,71.35Z"/><path d="M84.29,76.22A4.17,4.17,0,0,1,85,74a6.31,6.31,0,0,1,1.88-1.91,10,10,0,0,1,2.84-1.29,12.82,12.82,0,0,1,6.66,0,9.59,9.59,0,0,1,2.82,1.29,6.41,6.41,0,0,1,1.9,1.92,4.31,4.31,0,0,1,.64,2.27,4.26,4.26,0,0,1-.37,1.75,5.17,5.17,0,0,1-1.11,1.58,8.08,8.08,0,0,1-3.12,1.94,11.88,11.88,0,0,1-4.1.69,12.39,12.39,0,0,1-3.36-.45,9.36,9.36,0,0,1-2.8-1.28,6.52,6.52,0,0,1-1.9-2A4.49,4.49,0,0,1,84.29,76.22Zm1.46,0a3.8,3.8,0,0,0,.55,2,5.36,5.36,0,0,0,1.56,1.67A7.86,7.86,0,0,0,90.21,81a10.3,10.3,0,0,0,5.58,0,7.86,7.86,0,0,0,2.35-1.12,5.13,5.13,0,0,0,1.57-1.66,3.8,3.8,0,0,0,0-3.92,5.38,5.38,0,0,0-1.58-1.66,8.15,8.15,0,0,0-2.36-1.11,9.54,9.54,0,0,0-2.78-.4,9.69,9.69,0,0,0-2.76.39,8.29,8.29,0,0,0-2.38,1.12,5.3,5.3,0,0,0-1.57,1.64A3.9,3.9,0,0,0,85.75,76.26Z"/><path d="M104.59,82V70.52H106l12.13,10v-10h1.33V82H118.2L105.92,71.85V82Z"/><path d="M123.32,82V70.52h9v.74h-7.65v4.56h7.4v.74h-7.4v4.68h7.84V82Z"/></g></g></svg>